HIERARCHY
ROOT Hips
{
	OFFSET 0.000000 0.000000 0.000000
	CHANNELS 6 Xposition Yposition Zposition Xrotation Yrotation Zrotation
	JOINT LeftUpLeg_virtual
	{
		OFFSET 0.000000 0.000000 0.000000
		CHANNELS 3 Xrotation Yrotation Zrotation
		JOINT LeftUpLeg
		{
			OFFSET 10.205400 -3.823500 0.155100
			CHANNELS 3 Xrotation Yrotation Zrotation
			JOINT LeftLeg
			{
				OFFSET 0.708757 -12.982077 0.567790
				CHANNELS 3 Xrotation Yrotation Zrotation
				JOINT LeftFoot
				{
					OFFSET -0.708756 -10.717838 -2.184338
					CHANNELS 3 Xrotation Yrotation Zrotation
					JOINT LeftToeBase
					{
						OFFSET 0.108149 -7.191104 7.560241
						CHANNELS 3 Xrotation Yrotation Zrotation
						JOINT LeftToe_End
						{
							OFFSET 0.070230 0.081724 4.490308
							CHANNELS 3 Xrotation Yrotation Zrotation
							End Site
							{
								OFFSET 0 0 0
							}
						}
					}
				}
			}
		}
	}
	JOINT RightUpLeg_virtual
	{
		OFFSET 0.000000 0.000000 0.000000
		CHANNELS 3 Xrotation Yrotation Zrotation
		JOINT RightUpLeg
		{
			OFFSET -10.205400 -3.823500 0.005500
			CHANNELS 3 Xrotation Yrotation Zrotation
			JOINT RightLeg
			{
				OFFSET -0.708756 -12.982134 0.610632
				CHANNELS 3 Xrotation Yrotation Zrotation
				JOINT RightFoot
				{
					OFFSET 0.708754 -10.717769 -1.945823
					CHANNELS 3 Xrotation Yrotation Zrotation
					JOINT RightToeBase
					{
						OFFSET -0.108140 -7.191069 7.372968
						CHANNELS 3 Xrotation Yrotation Zrotation
						JOINT RightToe_End
						{
							OFFSET -0.070227 0.081735 4.479403
							CHANNELS 3 Xrotation Yrotation Zrotation
							End Site
							{
								OFFSET 0 0 0
							}
						}
					}
				}
			}
		}
	}
	JOINT Spine_virtual
	{
		OFFSET 0.000000 0.000000 0.000000
		CHANNELS 3 Xrotation Yrotation Zrotation
		JOINT Spine
		{
			OFFSET 0.000000 6.876099 0.125700
			CHANNELS 3 Xrotation Yrotation Zrotation
			JOINT Spine1
			{
				OFFSET 0.000000 5.730043 0.104720
				CHANNELS 3 Xrotation Yrotation Zrotation
				JOINT Spine1_split
				{
					OFFSET 0.000000 5.730043 0.104720
					CHANNELS 3 Xrotation Yrotation Zrotation
					JOINT Spine2
					{
						OFFSET 0.000000 5.730043 0.104720
						CHANNELS 3 Xrotation Yrotation Zrotation
						JOINT Neck_virtual
						{
							OFFSET 0.000000 0.000000 0.000000
							CHANNELS 3 Xrotation Yrotation Zrotation
							JOINT Neck
							{
								OFFSET 0.000000 10.314075 0.188496
								CHANNELS 3 Xrotation Yrotation Zrotation
								JOINT Head
								{
									OFFSET 0.000000 7.643700 -2.377400
									CHANNELS 3 Xrotation Yrotation Zrotation
									JOINT HeadTop_End
									{
										OFFSET 0.000000 43.788605 -13.619600
										CHANNELS 3 Xrotation Yrotation Zrotation
										End Site
										{
											OFFSET 0 0 0
										}
									}
								}
							}
						}
						JOINT LeftShoulder_virtual
						{
							OFFSET 0.000000 0.000000 0.000000
							CHANNELS 3 Xrotation Yrotation Zrotation
							JOINT LeftShoulder
							{
								OFFSET 2.196100 4.412489 0.087492
								CHANNELS 3 Xrotation Yrotation Zrotation
								JOINT LeftShoulder_split
								{
									OFFSET 2.196100 4.412489 0.087492
									CHANNELS 3 Xrotation Yrotation Zrotation
									JOINT LeftArm
									{
										OFFSET 8.771219 -2.981674 -0.026999
										CHANNELS 3 Xrotation Yrotation Zrotation
										JOINT LeftForeArm
										{
											OFFSET 8.512804 0.000000 -0.000000
											CHANNELS 3 Xrotation Yrotation Zrotation
											JOINT LeftHand
											{
												OFFSET 18.484802 0.000000 -0.000000
												CHANNELS 3 Xrotation Yrotation Zrotation
												End Site
												{
													OFFSET 0 0 0
												}
											}
										}
									}
								}
							}
						}
						JOINT RightShoulder_virtual
						{
							OFFSET 0.000000 0.000000 0.000000
							CHANNELS 3 Xrotation Yrotation Zrotation
							JOINT RightShoulder
							{
								OFFSET -2.196100 4.412496 0.070690
								CHANNELS 3 Xrotation Yrotation Zrotation
								JOINT RightShoulder_split
								{
									OFFSET -2.196100 4.412496 0.070690
									CHANNELS 3 Xrotation Yrotation Zrotation
									JOINT RightArm
									{
										OFFSET -8.771282 -2.981682 -0.094208
										CHANNELS 3 Xrotation Yrotation Zrotation
										JOINT RightForeArm
										{
											OFFSET -8.494598 0.000000 0.000000
											CHANNELS 3 Xrotation Yrotation Zrotation
											JOINT RightHand
											{
												OFFSET -18.483803 0.000000 0.000001
												CHANNELS 3 Xrotation Yrotation Zrotation
												End Site
												{
													OFFSET 0 0 0
												}
											}
										}
									}
								}
							}
						}
					}
				}
			}
		}
	}
}
MOTION
Frames: 5
Frame Time: 0.03333333
1.183287 26.923733 0.517456 0.000000 0.000000 0.000000 -2.716588 -38.671609 1.695380 -37.813088 3.689736 22.220272 58.006775 -4.370157 3.963026 -21.934164 -5.279458 -20.544077 -1.351953 0.828389 -0.062568 0.000000 0.000000 0.000000 -4.292483 -38.787702 2.328629 -12.277723 -14.097680 -41.270380 54.390166 7.706684 -7.254612 -31.567908 -15.257082 39.723776 -0.173301 1.344630 -1.608118 0.000000 0.000000 0.000000 -0.395088 -41.255514 2.547914 11.092632 7.538380 -3.308627 1.094145 1.897160 -1.528311 2.259257 -4.381479 -0.635539 0.000000 0.000000 0.000000 1.203894 1.793116 -0.546202 -0.885835 8.503073 4.846736 10.109860 6.490050 -4.147242 0.000000 0.000000 0.000000 1.611415 1.332366 -1.901083 1.541712 0.522257 -1.742234 -7.435483 1.932383 -6.291972 -46.515122 -5.886665 -47.795130 -166.978386 -77.775965 -164.439946 0.000000 0.000000 0.000000 2.305064 2.701551 0.365830 6.612960 10.851603 -11.120978 5.366716 13.480246 2.254863 -48.719295 31.987480 85.637568 177.114209 67.952623 179.958163 0.000000 0.000000 0.000000 
1.242964 26.988962 0.125652 0.000000 0.000000 0.000000 -4.006332 -38.814558 2.055112 -36.662710 4.576396 21.284138 57.102943 -4.557699 3.569640 -21.148310 -4.924752 -19.557022 -1.473512 0.807846 -0.116090 0.000000 0.000000 0.000000 -5.770645 -39.696233 2.379719 -12.859612 -14.393442 -41.883451 57.376171 6.844973 -7.070370 -32.643079 -16.157499 37.407945 2.458758 1.258992 -1.778646 0.000000 0.000000 0.000000 -2.717344 -42.810058 2.507767 9.939877 7.943037 -2.783357 1.042365 2.415229 -1.661740 0.484733 -3.072299 -0.481328 0.000000 0.000000 0.000000 1.643296 2.314377 -0.904130 0.569784 7.957786 5.158648 8.568867 7.998482 -5.142027 0.000000 0.000000 0.000000 2.301633 1.904008 -1.806473 1.449893 0.736895 -1.887775 -5.283170 1.266010 -7.999554 -45.078781 -6.520588 -51.548261 -167.031976 -80.362462 -164.749463 0.000000 0.000000 0.000000 2.864686 2.972237 -0.199288 6.497507 11.424032 -8.349816 3.165880 11.417956 1.957439 -47.010505 29.512175 80.711717 179.244928 68.369101 178.732841 0.000000 0.000000 0.000000 
1.373097 27.115372 -0.220808 0.000000 0.000000 0.000000 -5.825416 -39.755956 2.976913 -33.539046 6.079847 19.265495 54.385497 -4.926246 2.986481 -20.417052 -4.849589 -19.458056 -1.458938 0.684957 0.005626 0.000000 0.000000 0.000000 -7.517913 -40.829758 3.056807 -12.912404 -12.294145 -42.940812 61.405921 5.429746 -7.308055 -33.181704 -17.353422 35.491944 1.540399 1.143590 -1.577057 0.000000 0.000000 0.000000 -5.732973 -44.012960 2.665065 8.484810 8.915531 -1.702594 1.303998 3.696609 -1.840357 -0.009576 -1.058417 0.171974 0.000000 0.000000 0.000000 2.269977 3.497697 -1.329595 2.106533 6.857841 4.573153 5.967640 9.643627 -7.798089 0.000000 0.000000 0.000000 2.998741 3.260691 -1.743958 1.133928 0.428182 -2.620825 -3.990942 -0.874378 -8.141165 -40.796057 -8.892459 -57.831437 -165.527572 -84.399363 -163.682833 0.000000 0.000000 0.000000 3.823480 4.001101 -0.982621 6.334845 12.463225 -4.350438 2.214550 9.398262 1.747343 -45.818770 25.811813 72.706175 -178.971515 68.450120 177.836297 0.000000 0.000000 0.000000 
1.518777 27.294998 -0.397633 0.000000 0.000000 0.000000 -7.578338 -42.050422 4.197491 -28.860473 7.826750 16.624447 50.380790 -5.201671 2.196604 -19.996900 -4.596077 -20.329541 -1.625593 0.480148 0.369893 0.000000 0.000000 0.000000 -8.989386 -42.749485 4.257852 -12.825120 -8.039948 -44.148738 64.665301 3.746355 -7.817408 -33.535194 -18.318158 33.389479 -1.111240 0.958141 -0.945270 0.000000 0.000000 0.000000 -8.697040 -45.624783 2.988838 7.278997 9.890764 -0.047497 2.032962 5.244912 -1.882334 1.063241 0.324154 0.934805 0.000000 0.000000 0.000000 3.216448 4.900089 -1.502474 3.262791 5.596697 3.534366 2.415022 11.357427 -11.282117 0.000000 0.000000 0.000000 3.810428 4.868658 -1.534848 0.574640 -0.260278 -3.332723 -3.093639 -1.764424 -7.394471 -34.756176 -12.146364 -64.323901 -124.971616 -89.018217 -123.518316 0.000000 0.000000 0.000000 5.154302 5.278863 -1.689074 6.095585 13.965699 -0.021217 1.844689 7.840332 1.961888 -46.489304 24.346066 64.584609 -178.678814 69.318647 178.262897 0.000000 0.000000 0.000000 
1.701209 27.497826 -0.594007 0.000000 0.000000 0.000000 -8.818067 -46.405910 5.381664 -23.152588 9.492572 13.935355 45.756322 -4.869546 1.244352 -20.390739 -3.439550 -21.613529 -1.938814 0.229168 0.847393 0.000000 0.000000 0.000000 -9.571273 -46.423365 5.700084 -13.473923 -2.002648 -45.096187 65.766662 2.067568 -8.188289 -33.597502 -18.090161 30.672266 -1.665171 0.810520 -0.005146 0.000000 0.000000 0.000000 -10.802420 -48.599487 3.454120 6.690839 10.295560 2.100875 3.299023 6.393598 -1.621297 1.840568 0.590719 1.359421 0.000000 0.000000 0.000000 4.629908 5.951778 -1.234301 3.544569 4.251399 2.560434 -2.266729 12.859294 -14.471223 0.000000 0.000000 0.000000 4.958329 6.110796 -1.013715 -0.167916 -1.350077 -3.098261 -1.911194 -0.609950 -6.277370 -27.897860 -14.841166 -69.363194 -8.026992 -85.251744 -6.702223 0.000000 0.000000 0.000000 6.620325 6.234272 -1.935548 5.730455 15.677472 3.732593 1.933633 6.609691 2.662142 -49.594284 28.149738 58.695176 179.701990 71.602622 -179.703616 0.000000 0.000000 0.000000 
